<?xml version="1.0" encoding="utf-8"?>
<!-- Generator: Adobe Illustrator 26.4.1, SVG Export Plug-In . SVG Version: 6.00 Build 0)  -->
<svg version="1.1" id="Слой_1" xmlns="http://www.w3.org/2000/svg" xmlns:xlink="http://www.w3.org/1999/xlink" x="0px" y="0px"
	 viewBox="0 0 102.89 36" style="enable-background:new 0 0 102.89 36;" xml:space="preserve">
<style type="text/css">
	.st0{fill-rule:evenodd;clip-rule:evenodd;fill:#4F4F4F;}
</style>
<path class="st0" d="M12.64,1.97H6.81v26.92H5.45V0.33H14v28.56h-1.37V1.97L12.64,1.97z M22.39,27.77c1.06,0,1.91-0.76,2.55-2.3
	c0.64-1.53,0.96-3.9,0.96-7.09c0-2.66-0.28-4.73-0.83-6.19c-0.55-1.46-1.31-2.2-2.29-2.2c-0.38,0-0.74,0.11-1.08,0.34
	c-0.36,0.24-0.68,0.54-0.96,0.9c-0.3,0.37-0.57,0.81-0.81,1.3c-0.24,0.49-0.45,1.01-0.63,1.54v11.26c0.33,0.83,0.74,1.44,1.23,1.84
	C21.02,27.57,21.64,27.77,22.39,27.77L22.39,27.77z M22.29,29.25c-0.61,0.01-1.2-0.16-1.74-0.5c-0.49-0.3-0.91-0.73-1.24-1.26v7.63
	h-1.56V8.76h1.36l0.13,3.31c0.38-0.96,0.87-1.82,1.49-2.58c0.62-0.76,1.39-1.14,2.32-1.14c0.69,0,1.3,0.24,1.86,0.72
	c0.55,0.48,1.02,1.15,1.39,2.02c0.38,0.87,0.66,1.9,0.86,3.12c0.2,1.21,0.3,2.55,0.3,4.01c0,3.7-0.48,6.46-1.43,8.29
	C25.09,28.34,23.84,29.25,22.29,29.25L22.29,29.25z M33.74,27.77c0.77,0,1.43-0.39,1.97-1.16c0.54-0.77,0.97-1.71,1.28-2.8v-5.55
	H35.2c-1.39,0-2.42,0.4-3.08,1.2c-0.66,0.8-1,2.08-1,3.83c0,1.44,0.24,2.54,0.71,3.31C32.31,27.39,32.94,27.77,33.74,27.77
	L33.74,27.77z M37.45,28.89c-0.08-0.34-0.15-0.68-0.22-1.02c-0.09-0.56-0.15-1.13-0.18-1.7c-0.4,0.96-0.89,1.72-1.49,2.28
	c-0.6,0.56-1.31,0.84-2.15,0.84c-1.13,0-2.05-0.51-2.75-1.54c-0.71-1.03-1.06-2.46-1.06-4.29c0-2.16,0.48-3.79,1.43-4.89
	c0.95-1.1,2.33-1.66,4.15-1.66h1.82v-2.52c0-1.55-0.23-2.66-0.7-3.36C35.83,10.35,35.13,10,34.2,10c-0.71,0-1.37,0.19-1.99,0.58
	c-0.62,0.39-1.13,0.93-1.53,1.62l-0.43-1.8c0.33-0.53,0.83-1.01,1.51-1.42c0.68-0.41,1.49-0.62,2.44-0.62c1.39,0,2.46,0.47,3.2,1.42
	c0.74,0.95,1.11,2.42,1.11,4.41v10.98c0,0.69,0.03,1.39,0.1,2.1c0.07,0.71,0.15,1.25,0.26,1.62H37.45z M43.65,28.89h-1.56V8.76h1.56
	v9.47l5.6-9.47h1.52l-5.5,9.35l5.9,10.78h-1.72l-5.8-10.42V28.89z M57.15,10.32v18.57h-1.56V10.32h-3.88V8.76H61v1.56H57.15
	L57.15,10.32z M71.18,14.87c0-0.53,0.01-1.02,0.03-1.46c0.02-0.44,0.05-0.87,0.1-1.3h-0.1c-0.11,0.44-0.24,0.88-0.4,1.3
	c-0.16,0.43-0.33,0.87-0.5,1.3l-5.44,14.18h-1.33V8.76h1.46v13.98c0,0.95-0.04,1.89-0.13,2.84h0.1c0.11-0.45,0.24-0.9,0.4-1.34
	c0.15-0.44,0.32-0.89,0.5-1.34l5.44-14.14h1.36v20.13h-1.49V14.87z M77.98,28.89h-1.56V8.76h1.56v9.47l5.6-9.47h1.53l-5.5,9.35
	l5.9,10.78h-1.73l-5.8-10.42V28.89z M91.65,27.83c0.77,0,1.43-0.39,1.97-1.16c0.54-0.77,0.97-1.71,1.28-2.8v-5.55h-1.79
	c-1.39,0-2.42,0.4-3.08,1.2c-0.66,0.8-1,2.08-1,3.83c0,1.44,0.24,2.54,0.71,3.31C90.22,27.45,90.86,27.83,91.65,27.83L91.65,27.83z
	 M95.37,28.95c-0.08-0.34-0.15-0.68-0.22-1.02c-0.09-0.56-0.15-1.13-0.18-1.7c-0.4,0.96-0.89,1.72-1.49,2.28
	c-0.6,0.56-1.31,0.84-2.15,0.84c-1.13,0-2.05-0.51-2.75-1.54c-0.71-1.03-1.06-2.46-1.06-4.29c0-2.16,0.48-3.79,1.43-4.89
	c0.95-1.1,2.33-1.66,4.15-1.66h1.82v-2.52c0-1.55-0.23-2.66-0.7-3.36c-0.46-0.69-1.16-1.04-2.09-1.04c-0.71,0-1.37,0.19-1.99,0.58
	c-0.62,0.39-1.13,0.93-1.53,1.62l-0.43-1.8c0.33-0.53,0.83-1.01,1.51-1.42c0.68-0.41,1.49-0.62,2.44-0.62c1.39,0,2.46,0.47,3.2,1.42
	c0.74,0.95,1.11,2.42,1.11,4.41v10.98c0,0.69,0.03,1.39,0.1,2.1c0.07,0.71,0.15,1.25,0.26,1.62H95.37z"/>
</svg>
